<svg width="13" height="12" viewBox="0 0 13 12" fill="none" xmlns="http://www.w3.org/2000/svg">
<path d="M11.8128 6.00006C11.8128 4.70713 11.2992 3.46716 10.385 2.55292C9.47071 1.63868 8.23074 1.12506 6.93781 1.12506C5.64487 1.12506 4.4049 1.63868 3.49066 2.55292C2.57642 3.46716 2.06281 4.70713 2.06281 6.00006C2.06281 7.29299 2.57642 8.53297 3.49066 9.44721C4.4049 10.3614 5.64487 10.8751 6.93781 10.8751C8.23074 10.8751 9.47071 10.3614 10.385 9.44721C11.2992 8.53297 11.8128 7.29299 11.8128 6.00006ZM0.937805 6.00006C0.937805 4.40876 1.56995 2.88264 2.69516 1.75742C3.82038 0.632202 5.34651 6.10352e-05 6.93781 6.10352e-05C8.5291 6.10352e-05 10.0552 0.632202 11.1804 1.75742C12.3057 2.88264 12.9378 4.40876 12.9378 6.00006C12.9378 7.59136 12.3057 9.11748 11.1804 10.2427C10.0552 11.3679 8.5291 12.0001 6.93781 12.0001C5.34651 12.0001 3.82038 11.3679 2.69516 10.2427C1.56995 9.11748 0.937805 7.59136 0.937805 6.00006Z" fill="#176B87"/>
</svg>
