<svg width="10" height="10" viewBox="0 0 10 10" fill="none" xmlns="http://www.w3.org/2000/svg">
<g clip-path="url(#clip0_14_278)">
<path d="M9.0625 4.99994C9.0625 3.9225 8.63449 2.88918 7.87262 2.12732C7.11075 1.36545 6.07744 0.937439 5 0.937439C3.92256 0.937439 2.88925 1.36545 2.12738 2.12732C1.36551 2.88918 0.9375 3.9225 0.9375 4.99994C0.9375 6.07738 1.36551 7.11069 2.12738 7.87256C2.88925 8.63443 3.92256 9.06244 5 9.06244C6.07744 9.06244 7.11075 8.63443 7.87262 7.87256C8.63449 7.11069 9.0625 6.07738 9.0625 4.99994ZM0 4.99994C0 3.67386 0.526784 2.40209 1.46447 1.46441C2.40215 0.526723 3.67392 -6.10352e-05 5 -6.10352e-05C6.32608 -6.10352e-05 7.59785 0.526723 8.53553 1.46441C9.47322 2.40209 10 3.67386 10 4.99994C10 6.32602 9.47322 7.59779 8.53553 8.53547C7.59785 9.47315 6.32608 9.99994 5 9.99994C3.67392 9.99994 2.40215 9.47315 1.46447 8.53547C0.526784 7.59779 0 6.32602 0 4.99994Z" fill="#0C0C0C"/>
</g>
<defs>
<clipPath id="clip0_14_278">
<rect width="10" height="10" fill="white"/>
</clipPath>
</defs>
</svg>
