<svg width="12" height="12" viewBox="0 0 12 12" fill="none" xmlns="http://www.w3.org/2000/svg">
<g clip-path="url(#clip0_14_93)">
<path d="M10.875 5.99994C10.875 4.70701 10.3614 3.46703 9.44715 2.55279C8.53291 1.63855 7.29293 1.12494 6 1.12494C4.70707 1.12494 3.46709 1.63855 2.55285 2.55279C1.63861 3.46703 1.125 4.70701 1.125 5.99994C1.125 7.29287 1.63861 8.53284 2.55285 9.44708C3.46709 10.3613 4.70707 10.8749 6 10.8749C7.29293 10.8749 8.53291 10.3613 9.44715 9.44708C10.3614 8.53284 10.875 7.29287 10.875 5.99994ZM0 5.99994C0 4.40864 0.632141 2.88252 1.75736 1.7573C2.88258 0.63208 4.4087 -6.10352e-05 6 -6.10352e-05C7.5913 -6.10352e-05 9.11742 0.63208 10.2426 1.7573C11.3679 2.88252 12 4.40864 12 5.99994C12 7.59124 11.3679 9.11736 10.2426 10.2426C9.11742 11.3678 7.5913 11.9999 6 11.9999C4.4087 11.9999 2.88258 11.3678 1.75736 10.2426C0.632141 9.11736 0 7.59124 0 5.99994Z" fill="#0F0E0E"/>
</g>
<defs>
<clipPath id="clip0_14_93">
<rect width="12" height="12" fill="white"/>
</clipPath>
</defs>
</svg>
