<svg width="24" height="32" viewBox="0 0 24 32" fill="none" xmlns="http://www.w3.org/2000/svg">
<g clip-path="url(#clip0_7_13)">
<path d="M12 31.9999C5.375 31.9999 0 26.6249 0 19.9999C0 14.2999 8.1375 3.60619 10.4125 0.731189C10.7875 0.262439 11.3438 -6.10352e-05 11.9438 -6.10352e-05H12.0562C12.6562 -6.10352e-05 13.2125 0.262439 13.5875 0.731189C15.8625 3.60619 24 14.2999 24 19.9999C24 26.6249 18.625 31.9999 12 31.9999ZM6 20.9999C6 20.4499 5.55 19.9999 5 19.9999C4.45 19.9999 4 20.4499 4 20.9999C4 24.8687 7.13125 27.9999 11 27.9999C11.55 27.9999 12 27.5499 12 26.9999C12 26.4499 11.55 25.9999 11 25.9999C8.2375 25.9999 6 23.7624 6 20.9999Z" fill="#0F0E0E"/>
</g>
<defs>
<clipPath id="clip0_7_13">
<rect width="24" height="32" fill="white"/>
</clipPath>
</defs>
</svg>
