<svg width="693" height="806" viewBox="0 0 693 806" fill="none" xmlns="http://www.w3.org/2000/svg">
<rect x="139" width="554" height="640" fill="#78D5CF"/>
<path d="M1288.65 427.455L812.349 539.197C731.624 558.135 651.475 505.679 636.524 424.121L574.904 87.9942C554.365 -24.0457 391.436 -16.7998 380.923 96.621L369.511 219.745C363.294 286.819 272.059 301.967 244.5 240.5V240.5L132.5 -21.5001" stroke="#176B87" stroke-opacity="0.75" stroke-width="10"/>
<path d="M149 639L146.214 484.925C145.481 444.395 204.601 439.086 211.101 479.098V479.098C211.675 482.631 212.826 486.046 214.508 489.206L245.439 547.319C305.125 659.456 462.682 667.811 533.892 562.614L683.264 341.95C695.492 323.887 682.551 299.5 660.738 299.5V299.5C637.321 299.5 624.847 327.122 640.332 344.689L834.468 564.934" stroke="#176B87" stroke-opacity="0.75" stroke-width="10"/>
<rect x="236" y="80" width="360" height="480" rx="40" fill="#DAFFFB"/>
</svg>
