<svg width="36" height="36" viewBox="0 0 36 36" fill="none" xmlns="http://www.w3.org/2000/svg">
<g clip-path="url(#clip0_14_65)">
<path d="M19.7662 24.8451V2.9686C19.7662 1.33173 18.4345 -6.10352e-05 16.7975 -6.10352e-05C15.1605 -6.10352e-05 13.8289 1.33173 13.8289 2.9686V24.8451C11.9733 25.9063 10.8303 27.8517 10.8226 30.0032C10.8171 31.5472 11.4189 33.0238 12.5169 34.1609C13.6155 35.2985 15.0703 35.9506 16.6133 35.9971C16.6756 35.999 16.7376 35.9999 16.7996 35.9999C18.3624 35.9999 19.8329 35.405 20.958 34.3134C22.1281 33.1779 22.7725 31.6549 22.7725 30.0249C22.7724 27.8641 21.6294 25.9104 19.7662 24.8451ZM20.173 33.5042C19.224 34.4249 17.9711 34.9107 16.6474 34.8702C15.3999 34.8326 14.2211 34.3026 13.3279 33.3777C12.4349 32.453 11.9455 31.256 11.95 30.0071C11.9565 28.1663 12.9887 26.511 14.6437 25.6873C14.8352 25.592 14.9561 25.3965 14.9561 25.1827V2.9686C14.9561 1.95329 15.7822 1.12726 16.7975 1.12726C17.8128 1.12726 18.6388 1.95329 18.6388 2.9686V25.1827C18.6388 25.3966 18.7598 25.592 18.9513 25.6874C20.6129 26.5144 21.645 28.1764 21.645 30.0249C21.6451 31.3474 21.1223 32.583 20.173 33.5042Z" fill="#0A0A0A"/>
<path d="M17.3612 26.4999V6.57608C17.3612 6.26481 17.1088 6.01239 16.7975 6.01239C16.4862 6.01239 16.2338 6.26474 16.2338 6.57608V26.4999C14.5322 26.7709 13.2275 28.2483 13.2275 30.0248C13.2275 31.9932 14.829 33.5947 16.7974 33.5947C18.7658 33.5947 20.3673 31.9932 20.3673 30.0248C20.3674 28.2483 19.0627 26.7709 17.3612 26.4999ZM16.7975 32.4674C15.4507 32.4674 14.355 31.3717 14.355 30.0248C14.355 28.678 15.4507 27.5823 16.7975 27.5823C18.1444 27.5823 19.2401 28.678 19.2401 30.0248C19.2401 31.3717 18.1444 32.4674 16.7975 32.4674Z" fill="#0A0A0A"/>
<path d="M24.6138 18.0375H21.6075C21.2962 18.0375 21.0438 18.2898 21.0438 18.6012C21.0438 18.9125 21.2961 19.1649 21.6075 19.1649H24.6138C24.925 19.1649 25.1775 18.9125 25.1775 18.6012C25.1775 18.2898 24.9252 18.0375 24.6138 18.0375Z" fill="#0B0B0B"/>
<path d="M23.4113 15.0312H21.6076C21.2963 15.0312 21.0439 15.2835 21.0439 15.5949C21.0439 15.9062 21.2962 16.1586 21.6076 16.1586H23.4113C23.7225 16.1586 23.975 15.9062 23.975 15.5949C23.975 15.2836 23.7225 15.0312 23.4113 15.0312Z" fill="#0A0A0A"/>
<path d="M24.6138 12.025H21.6075C21.2962 12.025 21.0438 12.2773 21.0438 12.5887C21.0438 12.8999 21.2961 13.1524 21.6075 13.1524H24.6138C24.925 13.1524 25.1775 12.9 25.1775 12.5887C25.1775 12.2773 24.9252 12.025 24.6138 12.025Z" fill="#111010"/>
<path d="M23.4113 9.01868H21.6076C21.2963 9.01868 21.0439 9.27103 21.0439 9.58237C21.0439 9.89364 21.2962 10.1461 21.6076 10.1461H23.4113C23.7225 10.1461 23.975 9.89371 23.975 9.58237C23.975 9.27103 23.7225 9.01868 23.4113 9.01868Z" fill="#0A0A0A"/>
<path d="M24.6138 6.01239H21.6075C21.2962 6.01239 21.0438 6.26474 21.0438 6.57608C21.0438 6.88736 21.2961 7.13978 21.6075 7.13978H24.6138C24.925 7.13978 25.1775 6.88743 25.1775 6.57608C25.1775 6.26481 24.9251 6.01239 24.6138 6.01239Z" fill="#0A0A0A"/>
</g>
<defs>
<clipPath id="clip0_14_65">
<rect width="36" height="36" fill="white"/>
</clipPath>
</defs>
</svg>
